# xmcd
#
# Track frame offsets:
# 150
# 18322
# 35141
# 50851
# 66310
# 81525
# 96995
# 107208
# 121907
# 141222
# 159384
# 176133
# 199530
#
# Disc length: 2855 seconds
#
#
# Revision: 0
# Processed by: cddbd v1.5.2PL0 Copyright (c) Steve Scherf et al.
# Submitted via: FreeRIP 2.951 
#
DISCID=c00b250d
DTITLE=Dr. Mablues - hardchor
DYEAR=2005
DGENRE=Blues
TTITLE0=highway to the hell (a capella)
TTITLE1=Jump
TTITLE2=kung fu fighting
TTITLE3=and i love her
TTITLE4=it's allright
TTITLE5=this boy
TTITLE6=she loves my automobile
TTITLE7=highway to the hell (Bavaria Remix)
TTITLE8=the joker
TTITLE9=back for good
TTITLE10=hey, mama (unplugged)
TTITLE11=Von drauss' vom Walde
TTITLE12=highway to the hell (Wiener Remix)
EXTD=
EXTT0=
EXTT1=
EXTT2=
EXTT3=
EXTT4=
EXTT5=
EXTT6=
EXTT7=
EXTT8=
EXTT9=
EXTT10=
EXTT11=
EXTT12=
PLAYORDER=
